<mxfile host="www.draw.io" modified="2019-10-23T16:29:13.593Z" agent="Mozilla/5.0 (Windows NT 10.0; Win64; x64) AppleWebKit/537.36 (KHTML, like Gecko) Chrome/77.0.3865.120 Safari/537.36" etag="ktMhypIvTUveZHt8l-cr" version="12.1.4" type="github" pages="1">
  <diagram id="VXXBErPaRREkLx4e3aFS" name="Page-1">
    <mxGraphModel dx="1024" dy="519" grid="1" gridSize="10" guides="1" tooltips="1" connect="1" arrows="1" fold="1" page="1" pageScale="1" pageWidth="827" pageHeight="1169" math="0" shadow="0">
      <root>
        <mxCell id="0"/>
        <mxCell id="1" parent="0"/>
        <mxCell id="sgS9pfxcDWxUZ_WW0lkM-1" value="Диспетчер" style="shape=umlActor;verticalLabelPosition=bottom;labelBackgroundColor=#ffffff;verticalAlign=top;html=1;outlineConnect=0;" parent="1" vertex="1">
          <mxGeometry x="80" y="350" width="30" height="60" as="geometry"/>
        </mxCell>
        <mxCell id="sgS9pfxcDWxUZ_WW0lkM-2" value="Автоматическая детекция посторонних объектов" style="ellipse;whiteSpace=wrap;html=1;" parent="1" vertex="1">
          <mxGeometry x="220" y="213" width="160" height="107" as="geometry"/>
        </mxCell>
        <mxCell id="sgS9pfxcDWxUZ_WW0lkM-5" value="Просмотр архива полученных материалов работы системы" style="ellipse;whiteSpace=wrap;html=1;" parent="1" vertex="1">
          <mxGeometry x="220" y="340" width="160" height="107" as="geometry"/>
        </mxCell>
        <mxCell id="sgS9pfxcDWxUZ_WW0lkM-6" value="Настройка системы детекции посторонних предметов" style="ellipse;whiteSpace=wrap;html=1;" parent="1" vertex="1">
          <mxGeometry x="220" y="467" width="160" height="107" as="geometry"/>
        </mxCell>
        <mxCell id="sgS9pfxcDWxUZ_WW0lkM-7" value="Ручная корректировка ложных срабатываний" style="ellipse;whiteSpace=wrap;html=1;" parent="1" vertex="1">
          <mxGeometry x="470" y="410" width="160" height="107" as="geometry"/>
        </mxCell>
        <mxCell id="sgS9pfxcDWxUZ_WW0lkM-8" value="Сохранение результатов" style="ellipse;whiteSpace=wrap;html=1;" parent="1" vertex="1">
          <mxGeometry x="470" y="266.5" width="160" height="107" as="geometry"/>
        </mxCell>
        <mxCell id="sgS9pfxcDWxUZ_WW0lkM-10" value="Информирование диспетчера&amp;nbsp;" style="ellipse;whiteSpace=wrap;html=1;" parent="1" vertex="1">
          <mxGeometry x="470" y="140" width="160" height="107" as="geometry"/>
        </mxCell>
        <mxCell id="sgS9pfxcDWxUZ_WW0lkM-12" value="" style="endArrow=classic;html=1;entryX=0;entryY=0.5;entryDx=0;entryDy=0;" parent="1" target="sgS9pfxcDWxUZ_WW0lkM-2" edge="1">
          <mxGeometry width="50" height="50" relative="1" as="geometry">
            <mxPoint x="130" y="370" as="sourcePoint"/>
            <mxPoint x="230" y="280" as="targetPoint"/>
          </mxGeometry>
        </mxCell>
        <mxCell id="sgS9pfxcDWxUZ_WW0lkM-13" value="" style="endArrow=classic;html=1;entryX=0;entryY=0.5;entryDx=0;entryDy=0;" parent="1" target="sgS9pfxcDWxUZ_WW0lkM-5" edge="1">
          <mxGeometry width="50" height="50" relative="1" as="geometry">
            <mxPoint x="130" y="394" as="sourcePoint"/>
            <mxPoint x="210" y="450" as="targetPoint"/>
          </mxGeometry>
        </mxCell>
        <mxCell id="sgS9pfxcDWxUZ_WW0lkM-14" value="" style="endArrow=classic;html=1;entryX=0;entryY=0.5;entryDx=0;entryDy=0;" parent="1" target="sgS9pfxcDWxUZ_WW0lkM-6" edge="1">
          <mxGeometry width="50" height="50" relative="1" as="geometry">
            <mxPoint x="130" y="420" as="sourcePoint"/>
            <mxPoint x="220" y="390" as="targetPoint"/>
          </mxGeometry>
        </mxCell>
        <mxCell id="sgS9pfxcDWxUZ_WW0lkM-15" value="" style="endArrow=classic;html=1;exitX=1;exitY=0.5;exitDx=0;exitDy=0;entryX=0;entryY=0.5;entryDx=0;entryDy=0;" parent="1" source="sgS9pfxcDWxUZ_WW0lkM-2" target="sgS9pfxcDWxUZ_WW0lkM-10" edge="1">
          <mxGeometry width="50" height="50" relative="1" as="geometry">
            <mxPoint x="350" y="140" as="sourcePoint"/>
            <mxPoint x="400" y="90" as="targetPoint"/>
          </mxGeometry>
        </mxCell>
        <mxCell id="ZcM-CEc13TvA1Z4drTZw-3" value="Include" style="text;html=1;resizable=0;points=[];align=center;verticalAlign=middle;labelBackgroundColor=#ffffff;" parent="sgS9pfxcDWxUZ_WW0lkM-15" vertex="1" connectable="0">
          <mxGeometry x="-0.1931" y="-1" relative="1" as="geometry">
            <mxPoint as="offset"/>
          </mxGeometry>
        </mxCell>
        <mxCell id="sgS9pfxcDWxUZ_WW0lkM-16" value="" style="endArrow=classic;html=1;exitX=1;exitY=0.5;exitDx=0;exitDy=0;entryX=0;entryY=0.5;entryDx=0;entryDy=0;" parent="1" source="sgS9pfxcDWxUZ_WW0lkM-2" target="sgS9pfxcDWxUZ_WW0lkM-8" edge="1">
          <mxGeometry width="50" height="50" relative="1" as="geometry">
            <mxPoint x="430" y="250" as="sourcePoint"/>
            <mxPoint x="480" y="200" as="targetPoint"/>
          </mxGeometry>
        </mxCell>
        <mxCell id="ZcM-CEc13TvA1Z4drTZw-4" value="Include" style="text;html=1;resizable=0;points=[];align=center;verticalAlign=middle;labelBackgroundColor=#ffffff;" parent="sgS9pfxcDWxUZ_WW0lkM-16" vertex="1" connectable="0">
          <mxGeometry x="-0.1476" y="1" relative="1" as="geometry">
            <mxPoint as="offset"/>
          </mxGeometry>
        </mxCell>
        <mxCell id="sgS9pfxcDWxUZ_WW0lkM-17" value="" style="endArrow=classic;html=1;exitX=1;exitY=0.5;exitDx=0;exitDy=0;entryX=0;entryY=0.5;entryDx=0;entryDy=0;" parent="1" source="sgS9pfxcDWxUZ_WW0lkM-5" target="sgS9pfxcDWxUZ_WW0lkM-7" edge="1">
          <mxGeometry width="50" height="50" relative="1" as="geometry">
            <mxPoint x="510" y="500" as="sourcePoint"/>
            <mxPoint x="560" y="450" as="targetPoint"/>
          </mxGeometry>
        </mxCell>
        <mxCell id="ZcM-CEc13TvA1Z4drTZw-7" value="Include" style="text;html=1;resizable=0;points=[];align=center;verticalAlign=middle;labelBackgroundColor=#ffffff;" parent="sgS9pfxcDWxUZ_WW0lkM-17" vertex="1" connectable="0">
          <mxGeometry x="-0.3667" y="1" relative="1" as="geometry">
            <mxPoint x="11" y="1" as="offset"/>
          </mxGeometry>
        </mxCell>
        <mxCell id="ZcM-CEc13TvA1Z4drTZw-1" value="" style="endArrow=classic;html=1;exitX=0.5;exitY=0;exitDx=0;exitDy=0;entryX=0.5;entryY=1;entryDx=0;entryDy=0;" parent="1" source="sgS9pfxcDWxUZ_WW0lkM-7" target="sgS9pfxcDWxUZ_WW0lkM-8" edge="1">
          <mxGeometry width="50" height="50" relative="1" as="geometry">
            <mxPoint x="670" y="390" as="sourcePoint"/>
            <mxPoint x="720" y="350" as="targetPoint"/>
          </mxGeometry>
        </mxCell>
        <mxCell id="ZcM-CEc13TvA1Z4drTZw-8" value="Include" style="text;html=1;resizable=0;points=[];align=center;verticalAlign=middle;labelBackgroundColor=#ffffff;" parent="ZcM-CEc13TvA1Z4drTZw-1" vertex="1" connectable="0">
          <mxGeometry x="-0.5275" y="3" relative="1" as="geometry">
            <mxPoint x="3" y="-7.5" as="offset"/>
          </mxGeometry>
        </mxCell>
      </root>
    </mxGraphModel>
  </diagram>
</mxfile>
